<svg xmlns="http://www.w3.org/2000/svg" viewBox="0 0 512 512" width="512" height="512">
<defs>
<linearGradient id="bg" x1="0%" y1="0%" x2="100%" y2="100%">
<stop offset="0%" stop-color="#5B21B6"/>
<stop offset="55%" stop-color="#7C3AED"/>
<stop offset="100%" stop-color="#A78BFA"/>
</linearGradient>
<linearGradient id="panFill" x1="0%" y1="0%" x2="100%" y2="100%">
<stop offset="0%" stop-color="#FFFFFF" stop-opacity="0.95"/>
<stop offset="100%" stop-color="#E9E1FF" stop-opacity="0.85"/>
</linearGradient>
<filter id="soft" x="-50%" y="-50%" width="200%" height="200%">
<feDropShadow dx="0" dy="6" stdDeviation="8" flood-color="#2E1065" flood-opacity="0.35"/>
</filter>
</defs>
<rect x="0" y="0" width="512" height="512" rx="112" ry="112" fill="url(#bg)"/>
<rect x="0" y="0" width="512" height="512" rx="112" ry="112" fill="url(#bg)"/>
<path d="M 0 112 A 112 112 0 0 1 112 0 L 317 0 L 0 317 Z" fill="#FFFFFF" opacity="0.06"/>
<path d="M 46 96 L 46 66 L 76 66" fill="none" stroke="#FFFFFF" stroke-opacity="0.3" stroke-width="5" stroke-linecap="round" stroke-linejoin="round"/>
<circle cx="46" cy="96" r="6" fill="#FFFFFF" opacity="0.45"/>
<circle cx="76" cy="66" r="5" fill="#FFFFFF" opacity="0.45"/>
<path d="M 66 116 L 96 116" fill="none" stroke="#FFFFFF" stroke-opacity="0.24" stroke-width="4" stroke-linecap="round"/>
<circle cx="66" cy="116" r="4.5" fill="#FFFFFF" opacity="0.35"/>
<path d="M 466 416 L 466 446 L 436 446" fill="none" stroke="#FFFFFF" stroke-opacity="0.3" stroke-width="5" stroke-linecap="round" stroke-linejoin="round"/>
<circle cx="466" cy="416" r="6" fill="#FFFFFF" opacity="0.45"/>
<circle cx="436" cy="446" r="5" fill="#FFFFFF" opacity="0.45"/>
<path d="M 446 396 L 416 396" fill="none" stroke="#FFFFFF" stroke-opacity="0.24" stroke-width="4" stroke-linecap="round"/>
<circle cx="446" cy="396" r="4.5" fill="#FFFFFF" opacity="0.35"/>
<g filter="url(#soft)"><path d="M 256.00,58.00 L 261.66,72.34 L 276.00,78.00 L 261.66,83.66 L 256.00,98.00 L 250.34,83.66 L 236.00,78.00 L 250.34,72.34 Z" fill="#FFFFFF"/><line x1="256.0" y1="100" x2="256.0" y2="152" stroke="#FFFFFF" stroke-width="14" stroke-linecap="round"/><path d="M 226.0 184 L 286.0 184 L 256.0 152 Z" fill="#FFFFFF"/><line x1="256.0" y1="184" x2="256.0" y2="372" stroke="#FFFFFF" stroke-width="16" stroke-linecap="round"/><path d="M 192.0 372 L 320.0 372 L 336.0 400 L 176.0 400 Z" fill="#FFFFFF"/><path d="M 148 168 Q 256.0 154 364 168" fill="none" stroke="#FFFFFF" stroke-width="15" stroke-linecap="round"/><line x1="148" y1="170" x2="118" y2="244" stroke="#FFFFFF" stroke-width="6" stroke-linecap="round"/><line x1="364" y1="170" x2="394" y2="244" stroke="#FFFFFF" stroke-width="6" stroke-linecap="round"/><path d="M 118.00,318.00 L 83.36,298.00 L 83.36,258.00 L 118.00,238.00 L 152.64,258.00 L 152.64,298.00 Z" fill="url(#panFill)" stroke="#FFFFFF" stroke-width="4"/><line x1="118.0" y1="261.2" x2="102.0" y2="289.2" stroke="#6D28D9" stroke-width="3" stroke-opacity="0.55"/><line x1="102.0" y1="289.2" x2="134.0" y2="289.2" stroke="#6D28D9" stroke-width="3" stroke-opacity="0.55"/><line x1="134.0" y1="289.2" x2="118.0" y2="261.2" stroke="#6D28D9" stroke-width="3" stroke-opacity="0.55"/><circle cx="118.0" cy="261.2" r="6.5" fill="#6D28D9"/><circle cx="102.0" cy="289.2" r="6.5" fill="#6D28D9"/><circle cx="134.0" cy="289.2" r="6.5" fill="#6D28D9"/><path d="M 394.00,318.00 L 359.36,298.00 L 359.36,258.00 L 394.00,238.00 L 428.64,258.00 L 428.64,298.00 Z" fill="url(#panFill)" stroke="#FFFFFF" stroke-width="4"/><line x1="394.0" y1="261.2" x2="378.0" y2="289.2" stroke="#6D28D9" stroke-width="3" stroke-opacity="0.55"/><line x1="378.0" y1="289.2" x2="410.0" y2="289.2" stroke="#6D28D9" stroke-width="3" stroke-opacity="0.55"/><line x1="410.0" y1="289.2" x2="394.0" y2="261.2" stroke="#6D28D9" stroke-width="3" stroke-opacity="0.55"/><circle cx="394.0" cy="261.2" r="6.5" fill="#6D28D9"/><circle cx="378.0" cy="289.2" r="6.5" fill="#6D28D9"/><circle cx="410.0" cy="289.2" r="6.5" fill="#6D28D9"/></g>
</svg>